<svg width="38" height="40" viewBox="0 0 38 40" fill="none" xmlns="http://www.w3.org/2000/svg">
<path d="M33.75 0H3.75C1.6875 0 0 1.6875 0 3.75V36.25C0 38.3125 1.6875 40 3.75 40H33.75C35.8125 40 37.5 38.3125 37.5 36.25V3.75C37.5 1.6875 35.8125 0 33.75 0ZM32.5 35H5V5H32.5V35ZM10 22.5H27.5V25H10V22.5ZM10 27.5H27.5V30H10V27.5ZM12.5 11.25C12.5002 10.7574 12.5974 10.2696 12.786 9.81455C12.9747 9.35949 13.2511 8.94605 13.5996 8.59783C13.9481 8.24961 14.3617 7.97343 14.8169 7.78507C15.272 7.5967 15.7599 7.49984 16.2525 7.5C16.7451 7.50016 17.2329 7.59736 17.6879 7.78603C18.143 7.9747 18.5564 8.25115 18.9047 8.5996C19.2529 8.94805 19.5291 9.36168 19.7174 9.81686C19.9058 10.272 20.0027 10.7599 20.0025 11.2525C20.0022 12.2474 19.6066 13.2014 18.9029 13.9047C18.1992 14.6079 17.2449 15.0028 16.25 15.0025C15.2551 15.0022 14.3011 14.6066 13.5978 13.9029C12.8946 13.1992 12.4997 12.2449 12.5 11.25ZM18.75 15H13.75C11.6875 15 10 16.125 10 17.5V20H22.5V17.5C22.5 16.125 20.8125 15 18.75 15Z" fill="#4D4D4E"/>
</svg>
