<svg width="20" height="18" viewBox="0 0 20 18" fill="none" xmlns="http://www.w3.org/2000/svg">
<path d="M9.99992 3.5C10.1812 3.5 10.3584 3.55376 10.5092 3.65449C10.6599 3.75521 10.7774 3.89837 10.8468 4.06587C10.9162 4.23337 10.9343 4.41768 10.899 4.5955C10.8636 4.77332 10.7763 4.93665 10.6481 5.06485C10.5199 5.19305 10.3566 5.28035 10.1788 5.31572C10.0009 5.35109 9.81662 5.33294 9.64913 5.26356C9.48163 5.19418 9.33846 5.07668 9.23774 4.92594C9.13701 4.77519 9.08325 4.59797 9.08325 4.41667C9.08325 4.17355 9.17983 3.94039 9.35174 3.76849C9.52365 3.59658 9.7568 3.5 9.99992 3.5ZM4.49992 10.8333H15.4999V13.5833H4.49992V10.8333ZM17.3333 3.5H13.6666V0.75H6.33325V3.5H2.66659C2.18036 3.5 1.71404 3.69315 1.37022 4.03697C1.02641 4.38079 0.833252 4.8471 0.833252 5.33333V15.4167C0.833252 15.9029 1.02641 16.3692 1.37022 16.713C1.71404 17.0568 2.18036 17.25 2.66659 17.25H17.3333C17.8195 17.25 18.2858 17.0568 18.6296 16.713C18.9734 16.3692 19.1666 15.9029 19.1666 15.4167V5.33333C19.1666 4.8471 18.9734 4.38079 18.6296 4.03697C18.2858 3.69315 17.8195 3.5 17.3333 3.5ZM8.16659 2.58333H11.8333V7.16667H8.16659V2.58333ZM17.3333 15.4167H2.66659V7.16667H6.33325C6.33325 7.6529 6.52641 8.11921 6.87022 8.46303C7.21404 8.80685 7.68036 9 8.16659 9H11.8333C12.3195 9 12.7858 8.80685 13.1296 8.46303C13.4734 8.11921 13.6666 7.6529 13.6666 7.16667H17.3333V15.4167Z" fill="#4D4D4E"/>
</svg>
