<svg width="35" height="35" viewBox="0 0 35 35" fill="none" xmlns="http://www.w3.org/2000/svg">
<circle cx="17.5" cy="17.5" r="17" fill="white" stroke="#0D0D0D"/>
<path d="M27.5861 16.2873L18.499 7.20681C18.4336 7.14125 18.3559 7.08924 18.2703 7.05375C18.1847 7.01827 18.093 7 18.0004 7C17.9078 7 17.8161 7.01827 17.7305 7.05375C17.645 7.08924 17.5673 7.14125 17.5018 7.20681L8.41475 16.2873C8.15002 16.552 8 16.9116 8 17.2866C8 18.0654 8.63316 18.6986 9.41193 18.6986H10.3694V25.178C10.3694 25.5685 10.6849 25.884 11.0754 25.884H16.5885V20.9422H19.0594V25.884H24.9255C25.316 25.884 25.6314 25.5685 25.6314 25.178V18.6986H26.5889C26.9639 18.6986 27.3235 18.5508 27.5883 18.2838C28.1376 17.7323 28.1376 16.8388 27.5861 16.2873Z" fill="black"/>
</svg>
