<svg width="19" height="20" viewBox="0 0 19 20" fill="none" xmlns="http://www.w3.org/2000/svg">
<path d="M16.875 0H1.875C0.84375 0 0 0.84375 0 1.875V18.125C0 19.1562 0.84375 20 1.875 20H16.875C17.9062 20 18.75 19.1562 18.75 18.125V1.875C18.75 0.84375 17.9062 0 16.875 0ZM16.25 17.5H2.5V2.5H16.25V17.5ZM5 11.25H13.75V12.5H5V11.25ZM5 13.75H13.75V15H5V13.75ZM6.25 5.625C6.25008 5.37869 6.29868 5.13481 6.39301 4.90728C6.48735 4.67975 6.62557 4.47303 6.7998 4.29892C6.97403 4.12481 7.18084 3.98672 7.40843 3.89253C7.63602 3.79835 7.87994 3.74992 8.12625 3.75C8.37256 3.75008 8.61644 3.79868 8.84397 3.89301C9.0715 3.98735 9.27822 4.12557 9.45233 4.2998C9.62644 4.47403 9.76453 4.68084 9.85872 4.90843C9.9529 5.13602 10.0013 5.37994 10.0013 5.62625C10.0011 6.1237 9.80332 6.6007 9.45145 6.95233C9.09958 7.30396 8.62245 7.50142 8.125 7.50125C7.62755 7.50108 7.15055 7.30332 6.79892 6.95145C6.44729 6.59959 6.24983 6.12245 6.25 5.625ZM9.375 7.5H6.875C5.84375 7.5 5 8.0625 5 8.75V10H11.25V8.75C11.25 8.0625 10.4062 7.5 9.375 7.5Z" fill="#4D4D4E"/>
</svg>
