<svg width="60" height="68" viewBox="0 0 60 68" fill="none" xmlns="http://www.w3.org/2000/svg">
<path d="M41.25 29.2688H18.75C18.4922 29.2688 18.2812 29.505 18.2812 29.7938V56.175C18.2812 56.4638 18.4922 56.7 18.75 56.7H41.25C41.5078 56.7 41.7188 56.4638 41.7188 56.175V29.7938C41.7188 29.505 41.5078 29.2688 41.25 29.2688ZM22.0312 33.4688H37.9688V41.1469H22.0312V33.4688ZM37.9688 52.5H22.0312V44.8219H37.9688V52.5Z" fill="#4D4D4E"/>
<path d="M24.8438 49.0875C24.8438 49.6445 25.0413 50.1786 25.3929 50.5724C25.7446 50.9663 26.2215 51.1875 26.7188 51.1875C27.216 51.1875 27.6929 50.9663 28.0446 50.5724C28.3962 50.1786 28.5938 49.6445 28.5938 49.0875C28.5938 48.5306 28.3962 47.9964 28.0446 47.6026C27.6929 47.2088 27.216 46.9875 26.7188 46.9875C26.2215 46.9875 25.7446 47.2088 25.3929 47.6026C25.0413 47.9964 24.8438 48.5306 24.8438 49.0875ZM24.8438 37.4063C24.8438 37.9632 25.0413 38.4974 25.3929 38.8912C25.7446 39.285 26.2215 39.5063 26.7188 39.5063C27.216 39.5063 27.6929 39.285 28.0446 38.8912C28.3962 38.4974 28.5938 37.9632 28.5938 37.4063C28.5938 36.8493 28.3962 36.3152 28.0446 35.9213C27.6929 35.5275 27.216 35.3063 26.7188 35.3063C26.2215 35.3063 25.7446 35.5275 25.3929 35.9213C25.0413 36.3152 24.8438 36.8493 24.8438 37.4063Z" fill="#4D4D4E"/>
<path d="M47.5431 24.209C44.8595 16.275 38.0217 10.6312 30.0119 10.6312C22.0021 10.6312 15.1642 16.2684 12.4806 24.2025C7.43572 25.6922 3.72088 30.8568 3.75017 36.9862C3.78533 43.8375 8.53142 49.409 14.508 50.0062C14.7834 50.0325 15.0177 49.7897 15.0177 49.4812V45.5175C15.0177 45.255 14.842 45.0318 14.6076 44.999C13.0256 44.7759 11.5314 44.0015 10.383 42.735C8.97673 41.1928 8.2033 39.119 8.2033 36.9206C8.2033 35.0831 8.7365 33.3506 9.73845 31.9069C10.717 30.5025 12.0939 29.4853 13.6115 29.039L15.8322 28.3828L16.6467 25.9743C17.1506 24.4781 17.8537 23.0737 18.7385 21.8072C19.6115 20.5472 20.6486 19.4447 21.8088 18.5259C24.217 16.6293 27.0529 15.6253 30.0119 15.6253C32.9709 15.6253 35.8068 16.6293 38.215 18.5325C39.381 19.4512 40.4123 20.5537 41.2853 21.8137C42.1701 23.0803 42.8732 24.4847 43.3771 25.9809L44.1857 28.3828L46.4006 29.039C49.5763 29.984 51.797 33.2193 51.797 36.914C51.797 39.119 51.0236 41.1862 49.6174 42.7284C48.4748 43.9884 46.9865 44.7693 45.4045 44.9925C45.1701 45.0253 45.0002 45.2484 45.0002 45.5109V49.4812C45.0002 49.7897 45.2404 50.0325 45.5158 50.0062C51.4748 49.4025 56.2092 43.8375 56.2502 36.9993C56.2853 30.87 52.5763 25.7053 47.5431 24.209Z" fill="#4D4D4E"/>
</svg>
