<svg width="38" height="38" viewBox="0 0 38 38" fill="none" xmlns="http://www.w3.org/2000/svg">
<path fill-rule="evenodd" clip-rule="evenodd" d="M19.1884 28.4565C15.7954 28.4565 12.3484 26.4424 10.3366 23.7765C0.68483 23.7765 0.393066 37.5647 0.393066 37.5647H37.9813C37.9813 37.5647 38.7389 23.7153 27.8848 23.7153C25.8754 26.4141 22.5813 28.4565 19.1884 28.4565Z" fill="#4D4D4E"/>
<path fill-rule="evenodd" clip-rule="evenodd" d="M27.2733 11.927C27.2733 15.8941 23.6521 23.48 19.1815 23.48C14.718 23.48 11.0945 15.8917 11.0945 11.927C11.0945 7.96232 14.7157 4.7435 19.1815 4.7435C23.6521 4.74585 27.2733 7.96468 27.2733 11.927Z" fill="#4D4D4E"/>
<path fill-rule="evenodd" clip-rule="evenodd" d="M30.8825 8.50352C30.8825 7.75999 29.8472 7.15999 28.5625 7.15529V5.62352C28.5625 5.39529 28.6496 0.0517578 19.2096 0.0517578C9.7743 0.0517578 9.86136 5.39529 9.86136 5.62352V7.2094C9.83783 7.2094 9.819 7.20235 9.79783 7.20235C8.52018 7.20235 7.49194 7.79293 7.49194 8.5247V15.0047C7.49194 15.7318 8.52253 16.3247 9.79783 16.3247C11.0731 16.3247 12.1084 15.7318 12.1084 15.0047V8.5247C12.1084 8.42352 12.0449 8.33176 12.0072 8.23764V6.47058C12.0072 6.30823 11.3296 2.27529 19.2096 2.27529C27.0919 2.27529 26.2731 6.30823 26.2731 6.47058V8.33176C26.259 8.39058 26.2143 8.44235 26.2143 8.50352V15.1318C26.2143 15.8776 27.2566 16.4823 28.5484 16.4823C28.5766 16.4823 28.5978 16.4729 28.6261 16.4729V18.8941H26.3108V21.1765H30.9061L30.8825 8.50352Z" fill="#4D4D4E"/>
</svg>
