<svg width="16" height="18" viewBox="0 0 16 18" fill="none" xmlns="http://www.w3.org/2000/svg">
<path d="M0.5 0.875V17.125H7.375V14.625H8.625V17.125H15.5V0.875H0.5ZM1.75 2.125H14.25V15.875H9.875V13.375H6.125V15.875H1.75V2.125ZM3 3.375V4.625H5.5V3.375H3ZM6.75 3.375V4.625H9.25V3.375H6.75ZM10.5 3.375V4.625H13V3.375H10.5ZM3 5.875V7.125H5.5V5.875H3ZM6.75 5.875V7.125H9.25V5.875H6.75ZM10.5 5.875V7.125H13V5.875H10.5ZM3 8.375V9.625H5.5V8.375H3ZM6.75 8.375V9.625H9.25V8.375H6.75ZM10.5 8.375V9.625H13V8.375H10.5ZM3 10.875V12.125H5.5V10.875H3ZM6.75 10.875V12.125H9.25V10.875H6.75ZM10.5 10.875V12.125H13V10.875H10.5ZM3 13.375V14.625H5.5V13.375H3ZM10.5 13.375V14.625H13V13.375H10.5Z" fill="black"/>
</svg>
