<svg width="35" height="40" viewBox="0 0 35 40" fill="none" xmlns="http://www.w3.org/2000/svg">
<path d="M2.17241 8.2069H32.8276C33.9741 8.2069 35 9.23276 35 10.3793V15.4483C35 16.6552 33.9741 17.6207 32.8276 17.6207H2.17241C0.965517 17.6207 0 16.6552 0 15.4483V10.3793C0 9.23276 0.965517 8.2069 2.17241 8.2069ZM32.3448 13.3966V12.431C32.3448 12.069 31.9828 11.7069 31.6207 11.7069H27.7586C27.3362 11.7069 27.0345 12.069 27.0345 12.431V13.3966C27.0345 13.819 27.3362 14.1207 27.7586 14.1207H31.6207C31.9828 14.1207 32.3448 13.819 32.3448 13.3966ZM2.17241 19.3103H32.8276C33.9741 19.3103 35 20.2759 35 21.4828V26.5517C35 27.7586 33.9741 28.7241 32.8276 28.7241H2.17241C0.965517 28.7241 0 27.7586 0 26.5517V21.4828C0 20.2759 0.965517 19.3103 2.17241 19.3103ZM32.3448 24.5V23.5345C32.3448 23.1724 31.9828 22.8103 31.6207 22.8103H27.7586C27.3362 22.8103 27.0345 23.1724 27.0345 23.5345V24.5C27.0345 24.9224 27.3362 25.2241 27.7586 25.2241H31.6207C31.9828 25.2241 32.3448 24.9224 32.3448 24.5ZM2.17241 30.4138H32.8276C33.9741 30.4138 35 31.3793 35 32.5862V37.6552C35 38.8621 33.9741 39.8276 32.8276 39.8276H2.17241C0.965517 39.8276 0 38.8621 0 37.6552V32.5862C0 31.3793 0.965517 30.4138 2.17241 30.4138ZM32.3448 35.6035V34.6379C32.3448 34.2155 31.9828 33.9138 31.6207 33.9138H27.7586C27.3362 33.9138 27.0345 34.2155 27.0345 34.6379V35.6035C27.0345 36.0259 27.3362 36.3276 27.7586 36.3276H31.6207C31.9828 36.3276 32.3448 36.0259 32.3448 35.6035ZM32.8276 6.57759H2.17241C1.81034 6.57759 1.44828 6.63793 1.14655 6.75862L4.82759 1.75C5.55172 0.784483 7.12069 0 8.32759 0H26.6724C27.819 0 29.3879 0.784483 30.1121 1.75L33.8534 6.75862C33.4914 6.63793 33.1293 6.57759 32.8276 6.57759Z" fill="#4D4D4E"/>
</svg>
