<svg width="18" height="12" viewBox="0 0 18 12" fill="none" xmlns="http://www.w3.org/2000/svg">
<rect width="18" height="12" fill="#EA5B5B"/>
<path d="M5.60938 7.58984L6.89844 3.3125H8.20312L6.22266 9H5L3.02734 3.3125H4.32812L5.60938 7.58984ZM9.98828 9H8.81641V3.3125H9.98828V9ZM12.25 6.99609V9H11.0781V3.3125H13.2969C13.724 3.3125 14.099 3.39062 14.4219 3.54688C14.7474 3.70312 14.9974 3.92578 15.1719 4.21484C15.3464 4.5013 15.4336 4.82812 15.4336 5.19531C15.4336 5.7526 15.2422 6.19271 14.8594 6.51562C14.4792 6.83594 13.9518 6.99609 13.2773 6.99609H12.25ZM12.25 6.04688H13.2969C13.6068 6.04688 13.8424 5.97396 14.0039 5.82812C14.168 5.68229 14.25 5.47396 14.25 5.20312C14.25 4.92448 14.168 4.69922 14.0039 4.52734C13.8398 4.35547 13.6133 4.26693 13.3242 4.26172H12.25V6.04688Z" fill="white"/>
</svg>
