<svg width="18" height="18" viewBox="0 0 18 18" fill="none" xmlns="http://www.w3.org/2000/svg">
<path d="M15.6668 7.05833V6.91666C15.6719 5.49912 15.2221 4.11732 14.3836 2.97434C13.5451 1.83136 12.3621 0.987464 11.0085 0.566664H10.9585C10.2593 0.353525 9.5309 0.252274 8.80014 0.266664C7.05999 0.362157 5.42188 1.11812 4.22013 2.38027C3.01838 3.64242 2.34359 5.3156 2.33347 7.05833C1.84514 7.23011 1.42219 7.54925 1.12298 7.97168C0.823779 8.39411 0.663086 8.899 0.663086 9.41666C0.663086 9.93432 0.823779 10.4392 1.12298 10.8616C1.42219 11.2841 1.84514 11.6032 2.33347 11.775C2.50511 13.4206 3.28257 14.9437 4.5147 16.048C5.74683 17.1523 7.34558 17.7589 9.00014 17.75H9.1918C10.7918 17.6726 12.3126 17.0307 13.4842 15.9384C14.6558 14.8461 15.4026 13.374 15.5918 11.7833C16.0859 11.6213 16.5171 11.3092 16.8255 10.8905C17.1339 10.4718 17.304 9.96745 17.3123 9.44754C17.3205 8.92764 17.1665 8.41809 16.8715 7.98985C16.5766 7.56162 16.1555 7.236 15.6668 7.05833ZM9.15014 16.0833C7.9438 16.1182 6.76555 15.7156 5.83281 14.9498C4.90006 14.184 4.27577 13.1067 4.07514 11.9167H13.8835C13.6801 13.0432 13.1018 14.068 12.2425 14.8244C11.3832 15.5808 10.2934 16.0245 9.15014 16.0833ZM14.8335 10.25H3.1668C2.94579 10.25 2.73383 10.1622 2.57755 10.0059C2.42127 9.84964 2.33347 9.63768 2.33347 9.41666C2.33347 9.19565 2.42127 8.98369 2.57755 8.82741C2.73383 8.67113 2.94579 8.58333 3.1668 8.58333H4.83347C5.05448 8.58333 5.26644 8.49553 5.42272 8.33925C5.57901 8.18297 5.6668 7.97101 5.6668 7.75C5.6668 7.52898 5.57901 7.31702 5.42272 7.16074C5.26644 7.00446 5.05448 6.91666 4.83347 6.91666H4.00014C4.03744 6.05217 4.28452 5.20974 4.72007 4.46205C5.15561 3.71437 5.76654 3.08388 6.50014 2.625V5.25C6.50014 5.47101 6.58793 5.68297 6.74421 5.83925C6.90049 5.99553 7.11246 6.08333 7.33347 6.08333C7.55448 6.08333 7.76645 5.99553 7.92273 5.83925C8.07901 5.68297 8.1668 5.47101 8.1668 5.25V1.99166C8.39299 1.95387 8.62113 1.92883 8.85014 1.91666H9.00014C9.27941 1.9206 9.55798 1.94567 9.83347 1.99166V5.25C9.83347 5.47101 9.92127 5.68297 10.0775 5.83925C10.2338 5.99553 10.4458 6.08333 10.6668 6.08333C10.8878 6.08333 11.0998 5.99553 11.2561 5.83925C11.4123 5.68297 11.5001 5.47101 11.5001 5.25V2.6C11.8536 2.80468 12.1834 3.04783 12.4835 3.325C12.9639 3.79158 13.3458 4.34993 13.6063 4.96691C13.8668 5.58389 14.0008 6.24693 14.0001 6.91666H13.1668C12.9458 6.91666 12.7338 7.00446 12.5775 7.16074C12.4213 7.31702 12.3335 7.52898 12.3335 7.75C12.3335 7.97101 12.4213 8.18297 12.5775 8.33925C12.7338 8.49553 12.9458 8.58333 13.1668 8.58333H14.8335C15.0545 8.58333 15.2664 8.67113 15.4227 8.82741C15.579 8.98369 15.6668 9.19565 15.6668 9.41666C15.6668 9.63768 15.579 9.84964 15.4227 10.0059C15.2664 10.1622 15.0545 10.25 14.8335 10.25Z" fill="#4D4D4E"/>
</svg>
