<svg width="30" height="30" viewBox="0 0 30 30" fill="none" xmlns="http://www.w3.org/2000/svg">
<path d="M15 0C6.71572 0 0 6.71572 0 15C0 23.2843 6.71572 30 15 30C23.2843 30 30 23.2843 30 15C30 6.71572 23.2843 0 15 0ZM14.9696 8.34062C16.3532 8.35882 17.4992 9.48515 17.8799 10.9204C18.0251 11.506 18.0415 12.1001 17.8951 12.7204C17.6744 13.5936 17.2327 14.4466 16.4096 14.9706L17.6092 15.5405L20.4597 16.9206C20.7397 17.0406 20.8796 17.2806 20.8796 17.6406V20.3999C20.8796 20.969 20.9248 21.4597 20.2194 21.6603H9.7198C9.04145 21.6506 9.01335 20.9635 9.02925 20.3999V17.6406C9.02925 17.2806 9.17947 17.0302 9.47948 16.8902L12.4192 15.5405L13.56 15C13.04 14.66 12.63 14.1904 12.33 13.5904C11.9697 12.7983 11.8269 11.7701 12.0897 10.8301C12.4219 9.5561 13.4623 8.41145 14.9696 8.34062ZM10.0798 9.60013C10.5198 9.60013 10.9194 9.7305 11.2794 9.9905C11.1796 10.2704 11.095 10.5657 11.0248 10.8758C10.9549 11.1857 10.9194 11.5103 10.9194 11.8503C10.9194 12.3503 10.9893 12.8303 11.1293 13.2903C11.2693 13.7503 11.4696 14.1707 11.7297 14.5507C11.6096 14.7107 11.45 14.8506 11.2499 14.9706L9.0292 15.9907C8.7292 16.1507 8.48922 16.3751 8.30923 16.6651C8.12922 16.9551 8.03948 17.2806 8.03948 17.6406V20.3999H5.85008C5.53245 20.3949 5.31792 20.0749 5.3096 19.7407V17.1305C5.3096 16.8305 5.4192 16.6302 5.6392 16.5302L8.96943 15C8.109 14.4711 7.6939 13.5151 7.6501 12.4506C7.66525 11.139 8.5249 9.70907 10.0798 9.60013ZM19.9193 9.60013C21.3015 9.62197 22.3 10.9924 22.35 12.4506C22.3424 13.4155 21.9657 14.3472 21.0895 14.9706L24.3598 16.5302C24.5798 16.6502 24.6894 16.8505 24.6894 17.1306V19.7407C24.6861 20.0505 24.5189 20.3683 24.1499 20.3999H21.8997V17.6406C21.8997 17.2806 21.81 16.9551 21.63 16.6651C21.45 16.3751 21.21 16.1507 20.91 15.9907C19.9774 15.5572 18.9063 15.2461 18.2096 14.5203C18.7296 13.7203 18.9894 12.8303 18.9894 11.8503C18.9894 11.2303 18.8798 10.6199 18.6598 10.0199C19.0211 9.7814 19.4487 9.60682 19.9193 9.60013Z" fill="#4D4D4E"/>
</svg>
