<svg width="20" height="29" viewBox="0 0 20 29" fill="none" xmlns="http://www.w3.org/2000/svg">
<path d="M9.625 22.372C5.778 22.372 1.915 21.385 0.0900002 19.255C0.0360002 19.492 0 19.735 0 19.993V23.87C0 27.305 4.988 28.868 9.625 28.868C14.262 28.868 19.25 27.305 19.25 23.87V19.993C19.25 19.735 19.214 19.493 19.16 19.256C17.334 21.386 13.472 22.374 9.624 22.374L9.625 22.372ZM9.625 14.877C5.778 14.877 1.915 13.89 0.0910001 11.76C0.0332771 12.0011 0.00308412 12.2481 0.000999928 12.496V16.373C0.000999928 19.807 4.988 21.37 9.625 21.37C14.262 21.37 19.25 19.807 19.25 16.372V12.494C19.25 12.237 19.214 11.994 19.16 11.757C17.334 13.887 13.472 14.875 9.624 14.875L9.625 14.877ZM9.625 0C4.988 0 0 1.565 0 5V8.877C0 12.312 4.988 13.875 9.625 13.875C14.262 13.875 19.25 12.313 19.25 8.878V5.001C19.25 1.566 14.262 0.00100005 9.625 0.00100005V0ZM9.625 8C5.415 8 2 6.657 2 5C2 3.344 5.414 2 9.625 2C13.836 2 17.25 3.344 17.25 5C17.25 6.658 13.836 8 9.625 8Z" fill="#4D4D4E"/>
</svg>
