<svg width="30" height="30" viewBox="0 0 30 30" fill="none" xmlns="http://www.w3.org/2000/svg">
<circle cx="15" cy="15" r="15" fill="#4D4D4E"/>
<path d="M17.7583 12.2419C20.0922 14.5781 20.0601 18.3238 17.7724 20.6243C17.7681 20.629 17.763 20.634 17.7583 20.6387L15.1333 23.2637C12.8181 25.579 9.05131 25.5787 6.73643 23.2637C4.42119 20.9489 4.42119 17.1817 6.73643 14.8669L8.18588 13.4174C8.57026 13.033 9.23221 13.2885 9.25205 13.8317C9.27736 14.524 9.40151 15.2195 9.63057 15.8911C9.70815 16.1185 9.65272 16.3701 9.48279 16.54L8.97158 17.0512C7.87682 18.146 7.84248 19.9286 8.92647 21.034C10.0212 22.1504 11.8205 22.1571 12.9235 21.054L15.5485 18.4294C16.6497 17.3281 16.6451 15.5482 15.5485 14.4516C15.404 14.3073 15.2583 14.1952 15.1446 14.1169C15.0641 14.0616 14.9977 13.9883 14.9506 13.9028C14.9034 13.8173 14.877 13.722 14.8732 13.6245C14.8578 13.2117 15.004 12.7863 15.3302 12.4602L16.1526 11.6377C16.3683 11.4221 16.7066 11.3956 16.9567 11.5701C17.2431 11.7701 17.5113 11.9949 17.7583 12.2419ZM23.2636 6.73631C20.9487 4.42139 17.1819 4.42107 14.8667 6.73631L12.2417 9.36131C12.237 9.366 12.2319 9.37107 12.2276 9.37576C9.9399 11.6762 9.90783 15.4219 12.2417 17.7582C12.4887 18.0052 12.7569 18.2299 13.0433 18.4299C13.2934 18.6044 13.6317 18.5779 13.8474 18.3623L14.6698 17.5398C14.996 17.2137 15.1422 16.7883 15.1267 16.3755C15.123 16.278 15.0965 16.1827 15.0494 16.0972C15.0023 16.0117 14.9358 15.9384 14.8554 15.8831C14.7416 15.8048 14.596 15.6927 14.4514 15.5484C13.3548 14.4518 13.3502 12.6719 14.4514 11.5706L17.0764 8.94604C18.1795 7.84295 19.9788 7.84959 21.0735 8.96596C22.1575 10.0714 22.1232 11.854 21.0284 12.9488L20.5172 13.46C20.3473 13.6299 20.2918 13.8815 20.3694 14.1089C20.5985 14.7805 20.7226 15.476 20.7479 16.1683C20.7678 16.7115 21.4297 16.967 21.8141 16.5826L23.2635 15.1331C25.5788 12.8183 25.5788 9.05115 23.2636 6.73631Z" fill="white"/>
</svg>
