<svg width="30" height="30" viewBox="0 0 30 30" fill="none" xmlns="http://www.w3.org/2000/svg">
<path d="M26.25 30H3.75C2.71484 30 1.83105 29.6338 1.09863 28.9014C0.366211 28.1689 0 27.2852 0 26.25V7.5C0 6.46484 0.366211 5.58105 1.09863 4.84863C1.83105 4.11621 2.71484 3.75 3.75 3.75H5.625V1.875C5.625 1.34766 5.80566 0.90332 6.16699 0.541992C6.52832 0.180664 6.97266 0 7.5 0C8.02734 0 8.47168 0.180664 8.83301 0.541992C9.19434 0.90332 9.375 1.34766 9.375 1.875V3.75H13.125V1.875C13.125 1.34766 13.3105 0.90332 13.6816 0.541992C14.0527 0.180664 14.4971 0 15.0146 0C15.5322 0 15.9717 0.180664 16.333 0.541992C16.6943 0.90332 16.875 1.34766 16.875 1.875V3.75H20.625V1.875C20.625 1.34766 20.8105 0.90332 21.1816 0.541992C21.5527 0.180664 21.9971 0 22.5146 0C23.0322 0 23.4717 0.180664 23.833 0.541992C24.1943 0.90332 24.375 1.34766 24.375 1.875V3.75H26.25C27.2852 3.75 28.1689 4.11621 28.9014 4.84863C29.6338 5.58105 30 6.46484 30 7.5V26.25C30 27.2852 29.6338 28.1689 28.9014 28.9014C28.1689 29.6338 27.2852 30 26.25 30ZM26.25 7.5H24.375C24.375 8.00781 24.1943 8.44727 23.833 8.81836C23.4717 9.18945 23.0322 9.375 22.5146 9.375C21.9971 9.375 21.5527 9.18945 21.1816 8.81836C20.8105 8.44727 20.625 8.00781 20.625 7.5H16.875C16.875 8.00781 16.6943 8.44727 16.333 8.81836C15.9717 9.18945 15.5322 9.375 15.0146 9.375C14.4971 9.375 14.0527 9.18945 13.6816 8.81836C13.3105 8.44727 13.125 8.00781 13.125 7.5H9.375C9.375 8.00781 9.19434 8.44727 8.83301 8.81836C8.47168 9.18945 8.03223 9.375 7.51465 9.375C6.99707 9.375 6.55273 9.18945 6.18164 8.81836C5.81055 8.44727 5.625 8.00781 5.625 7.5H3.75V26.25H26.25V7.5ZM10.6055 15.498L13.125 18.0176L19.3652 11.748C19.7363 11.3965 20.1709 11.2207 20.6689 11.2207C21.167 11.2207 21.5967 11.3965 21.958 11.748C22.3193 12.0996 22.5 12.5293 22.5 13.0371C22.5 13.5449 22.3242 13.9746 21.9727 14.3262L14.707 21.5625C14.5898 21.7773 14.5117 21.9043 14.4727 21.9434C14.1016 22.3145 13.6523 22.4902 13.125 22.4707C12.5781 22.4902 12.1191 22.3145 11.748 21.9434C11.709 21.9043 11.6309 21.7773 11.5137 21.5625L7.99805 18.0762C7.64648 17.7246 7.4707 17.2949 7.4707 16.7871C7.4707 16.2793 7.65137 15.8496 8.0127 15.498C8.37402 15.1465 8.80371 14.9707 9.30176 14.9707C9.7998 14.9707 10.2344 15.1465 10.6055 15.498Z" fill="#4D4D4E"/>
</svg>
