<svg width="12" height="13" viewBox="0 0 12 13" fill="none" xmlns="http://www.w3.org/2000/svg">
<path d="M5.61697 6.71706L10.2305 12.6119C10.2848 12.6824 10.3697 12.7221 10.4582 12.7221H11.8551C11.9762 12.7221 12.0431 12.583 11.969 12.489L7.1729 6.36106L11.969 0.233123C11.9857 0.211815 11.996 0.186243 11.9989 0.159328C12.0017 0.132415 11.9969 0.105247 11.985 0.0809278C11.9732 0.0566101 11.9547 0.0361252 11.9317 0.0218143C11.9087 0.00750351 11.8822 -5.43594e-05 11.8551 3.8147e-06H10.4582C10.3697 3.8147e-06 10.2848 0.0415668 10.2305 0.110238L5.61697 6.00325C5.45252 6.21468 5.45252 6.50743 5.61697 6.71706ZM0.123337 6.71706L4.73691 12.6119C4.79112 12.6824 4.87605 12.7221 4.9646 12.7221H6.3615C6.48258 12.7221 6.54944 12.583 6.47535 12.489L1.67927 6.36106L6.47535 0.233123C6.49204 0.211815 6.50239 0.186243 6.50523 0.159328C6.50806 0.132415 6.50327 0.105247 6.49139 0.0809278C6.47952 0.0566101 6.46104 0.0361252 6.43807 0.0218143C6.4151 0.00750351 6.38857 -5.43594e-05 6.3615 3.8147e-06H4.9646C4.87605 3.8147e-06 4.79112 0.0415668 4.73691 0.110238L0.123337 6.00325C-0.041111 6.21468 -0.041111 6.50743 0.123337 6.71706Z" fill="black"/>
</svg>
