<svg width="12" height="13" viewBox="0 0 12 13" fill="none" xmlns="http://www.w3.org/2000/svg">
<path d="M6.38303 6.28294L1.76946 0.388127C1.71525 0.31765 1.63031 0.277893 1.54176 0.277893L0.144862 0.277893C0.0237849 0.277893 -0.0430785 0.417041 0.0310133 0.511011L4.8271 6.63894L0.0310133 12.7669C0.0143278 12.7882 0.00397475 12.8138 0.00113778 12.8407C-0.00169918 12.8676 0.0030946 12.8948 0.0149708 12.9191C0.0268469 12.9434 0.0453263 12.9639 0.0682961 12.9782C0.0912659 12.9925 0.117799 13.0001 0.144862 13H1.54176C1.63031 13 1.71525 12.9584 1.76946 12.8898L6.38303 6.99675C6.54748 6.78532 6.54748 6.49257 6.38303 6.28294ZM11.8767 6.28294L7.26309 0.388127C7.20888 0.31765 7.12395 0.277893 7.0354 0.277893L5.6385 0.277893C5.51742 0.277893 5.45056 0.417041 5.52465 0.511011L10.3207 6.63894L5.52465 12.7669C5.50796 12.7882 5.49761 12.8138 5.49477 12.8407C5.49194 12.8676 5.49673 12.8948 5.50861 12.9191C5.52048 12.9434 5.53896 12.9639 5.56193 12.9782C5.5849 12.9925 5.61143 13.0001 5.6385 13H7.0354C7.12395 13 7.20888 12.9584 7.26309 12.8898L11.8767 6.99675C12.0411 6.78532 12.0411 6.49257 11.8767 6.28294Z" fill="black"/>
</svg>
