<svg width="22" height="22" viewBox="0 0 22 22" fill="none" xmlns="http://www.w3.org/2000/svg">
<path d="M21.6382 5.42267C21.5877 5.31886 21.5132 5.22862 21.4208 5.15946C21.3284 5.09031 21.2208 5.04424 21.107 5.02511C20.9932 5.00598 20.8764 5.01434 20.7665 5.04948C20.6566 5.08463 20.5566 5.14555 20.475 5.22716L18.2772 7.42501C18.1875 7.51344 18.0667 7.56302 17.9407 7.56302C17.8148 7.56302 17.6939 7.51344 17.6043 7.42501L16.6384 6.45907C16.55 6.36929 16.5005 6.24838 16.5005 6.12241C16.5005 5.99645 16.55 5.87553 16.6384 5.78575L18.8246 3.59907C18.9083 3.51543 18.9701 3.41256 19.0048 3.29947C19.0395 3.18638 19.046 3.0665 19.0237 2.95034C19.0013 2.83417 18.9508 2.72525 18.8767 2.6331C18.8025 2.54095 18.7069 2.46837 18.5982 2.42173C16.8919 1.69126 14.7705 2.10161 13.4419 3.42247C12.2899 4.56587 11.9453 6.34435 12.4966 8.30802C12.5204 8.39229 12.5203 8.48151 12.4963 8.56573C12.4723 8.64995 12.4254 8.72585 12.3608 8.78497L4.93151 15.6879C4.68539 15.9093 4.48692 16.1785 4.3482 16.4791C4.20948 16.7797 4.13342 17.1054 4.12464 17.4364C4.11586 17.7673 4.17455 18.0966 4.29714 18.4041C4.41973 18.7117 4.60365 18.991 4.83769 19.2252C5.07173 19.4594 5.35099 19.6434 5.65847 19.7662C5.96594 19.8889 6.29518 19.9478 6.62614 19.9391C6.95709 19.9305 7.28283 19.8546 7.5835 19.7161C7.88417 19.5775 8.15349 19.3792 8.37503 19.1331L15.3398 11.6909C15.3981 11.6278 15.4726 11.5818 15.5551 11.5578C15.6376 11.5338 15.7251 11.5327 15.8082 11.5547C17.7418 12.0704 19.5035 11.7266 20.6392 10.6094C21.2923 9.96489 21.7482 9.05524 21.9235 8.04376C22.0881 7.08985 21.9841 6.13423 21.6382 5.42267Z" fill="black"/>
<path d="M18.7915 16.2599C18.1925 15.7618 16.9129 14.6098 15.6088 13.4145L12.7699 16.4485C13.9833 17.7375 15.0816 18.9342 15.5629 19.4941L15.5659 19.4975C15.6815 19.6299 15.8229 19.7371 15.9815 19.8128C16.14 19.8885 16.3124 19.9309 16.488 19.9375H16.5352C16.8728 19.9365 17.1966 19.8036 17.4376 19.5672L17.4406 19.5641L18.877 18.1303C19.0018 18.0058 19.0992 17.8566 19.163 17.6923C19.2268 17.528 19.2556 17.3521 19.2475 17.1761C19.2394 17 19.1946 16.8275 19.116 16.6698C19.0374 16.512 18.9268 16.3724 18.7911 16.2599H18.7915Z" fill="black"/>
<path d="M5.09348 9.21895C5.09419 9.05586 5.04956 8.8958 4.96458 8.7566C4.95267 8.73778 4.94631 8.71598 4.94622 8.69371C4.94613 8.67144 4.95231 8.64959 4.96406 8.63067C4.97581 8.61175 4.99265 8.59652 5.01265 8.58672C5.03265 8.57692 5.055 8.57296 5.07716 8.57527H5.07973C5.11583 8.57914 5.30876 8.60707 5.58247 8.77336C5.78571 8.89668 6.36579 9.29242 7.37555 10.3005C7.3648 10.6438 7.47456 10.9801 7.68579 11.2509L10.5316 8.60621C10.2796 8.36755 9.95021 8.22727 9.60348 8.2109C9.60024 8.20737 9.59723 8.20364 9.59446 8.19973L9.56653 8.17008L8.51208 6.71602C8.39485 6.55684 8.31798 6.37162 8.28804 6.17622C8.25811 5.98082 8.276 5.78107 8.3402 5.5941C8.43692 5.31563 8.61284 5.07146 8.84637 4.89156C9.09087 4.70207 9.64258 4.47391 10.1114 4.43524C10.3297 4.41718 10.5496 4.43079 10.7641 4.47563C10.8668 4.50042 10.9681 4.53098 11.0674 4.56715C11.0975 4.5784 11.1284 4.58744 11.1598 4.59422C11.2962 4.62444 11.4386 4.61238 11.5679 4.55967C11.6973 4.50695 11.8076 4.41608 11.884 4.29914C11.9604 4.18221 11.9994 4.04476 11.9958 3.90511C11.9921 3.76546 11.9461 3.63023 11.8636 3.51742C11.8525 3.50238 11.8069 3.44051 11.7395 3.35715C11.6136 3.1984 11.4757 3.04957 11.327 2.91199C10.9768 2.59574 10.0693 2.0625 8.87774 2.0625C8.19587 2.062 7.52032 2.19332 6.88829 2.44922C5.23958 3.11309 4.16106 4.02102 3.6652 4.5027L3.66133 4.50656C3.32768 4.83601 3.01876 5.1896 2.73708 5.56445C2.63059 5.71462 2.56136 5.88798 2.53512 6.0702C2.52286 6.14772 2.4821 6.21787 2.42082 6.26691C2.35954 6.31595 2.28216 6.34035 2.20383 6.33531H2.157C1.92276 6.33375 1.6974 6.42488 1.53008 6.58883L0.264655 7.82246L0.250905 7.83621C0.0917258 8.00159 0.00194944 8.22166 3.13765e-05 8.45119C-0.00188669 8.68072 0.0841993 8.90226 0.240592 9.07027C0.248756 9.07887 0.256491 9.08703 0.265084 9.0952L2.3061 11.0859C2.47426 11.2507 2.70016 11.3432 2.93559 11.3438C3.16984 11.3453 3.39519 11.2542 3.56251 11.0902L4.82837 9.85317C4.91279 9.77061 4.97977 9.67192 5.02531 9.56297C5.07085 9.45402 5.09404 9.33703 5.09348 9.21895Z" fill="black"/>
</svg>
