<svg width="19" height="19" viewBox="0 0 19 19" fill="none" xmlns="http://www.w3.org/2000/svg">
<path fill-rule="evenodd" clip-rule="evenodd" d="M9.49772 14.3867C7.78319 14.3867 6.0413 13.3666 5.02471 12.0164C0.147435 12.0164 0 19 0 19H18.9943C18.9943 19 19.3771 11.9854 13.8923 11.9854C12.8769 13.3523 11.2123 14.3867 9.49772 14.3867Z" fill="#0D0D0D"/>
<path fill-rule="evenodd" clip-rule="evenodd" d="M13.583 6.01474C13.583 8.02402 11.7532 11.8662 9.49406 11.8662C7.23853 11.8662 5.40747 8.02283 5.40747 6.01474C5.40747 4.00665 7.23734 2.37634 9.49406 2.37634C11.7532 2.37753 13.583 4.00784 13.583 6.01474Z" fill="#0D0D0D"/>
<path fill-rule="evenodd" clip-rule="evenodd" d="M15.407 4.28075C15.407 3.90416 14.8838 3.60026 14.2346 3.59788V2.82205C14.2346 2.70645 14.2786 0 9.50837 0C4.74049 0 4.78448 2.70645 4.78448 2.82205V3.62529C4.77259 3.62529 4.76308 3.62172 4.75238 3.62172C4.10675 3.62172 3.58716 3.92084 3.58716 4.29148V7.57354C3.58716 7.94179 4.10794 8.24211 4.75238 8.24211C5.39681 8.24211 5.91997 7.94179 5.91997 7.57354V4.29148C5.91997 4.24023 5.88787 4.19375 5.86885 4.14608V3.25108C5.86885 3.16885 5.52642 1.1262 9.50837 1.1262C13.4915 1.1262 13.0777 3.16885 13.0777 3.25108V4.19375C13.0706 4.22355 13.048 4.24976 13.048 4.28075V7.6379C13.048 8.01568 13.5747 8.32196 14.2275 8.32196C14.2418 8.32196 14.2525 8.31719 14.2667 8.31719V9.5435H13.0968V10.6995H15.4189L15.407 4.28075Z" fill="#0D0D0D"/>
</svg>
