<svg width="22" height="16" viewBox="0 0 22 16" fill="none" xmlns="http://www.w3.org/2000/svg">
<path d="M21.0789 15.0956V0.868431L21.0791 0.867131L21.0789 0.865831V0.804731H21.0726C21.0576 0.641759 20.9823 0.490268 20.8614 0.379872C20.7406 0.269476 20.5829 0.208111 20.4193 0.207771C20.4115 0.207771 20.4042 0.209851 20.3966 0.210111H19.2087C19.1902 0.208551 19.1723 0.204651 19.1533 0.204651C18.9784 0.20472 18.8107 0.274237 18.687 0.397925C18.5633 0.521613 18.4938 0.68935 18.4937 0.864271C18.4937 0.894691 18.4986 0.924071 18.5028 0.953451V6.97011L9.83415 1.96511C9.77234 1.90401 9.69401 1.8623 9.60881 1.84512C9.52361 1.82794 9.43525 1.83604 9.35458 1.86841C9.27392 1.90079 9.20448 1.95603 9.1548 2.02735C9.10512 2.09867 9.07736 2.18295 9.07495 2.26983H9.07339V6.23457L1.67847 1.96485C1.61666 1.90375 1.53833 1.86204 1.45313 1.84486C1.36793 1.82768 1.27957 1.83578 1.1989 1.86815C1.11824 1.90053 1.0488 1.95577 0.999121 2.02709C0.94944 2.09841 0.921685 2.18269 0.919269 2.26957H0.917969V13.7176C0.918094 13.8064 0.944666 13.8931 0.994294 13.9667C1.04392 14.0403 1.11435 14.0975 1.1966 14.1309C1.27885 14.1643 1.36919 14.1724 1.45608 14.1542C1.54297 14.1361 1.62247 14.0924 1.68445 14.0289L9.07339 9.76277V13.7179C9.07351 13.8067 9.10009 13.8934 9.14971 13.967C9.19934 14.0406 9.26977 14.0977 9.35202 14.1311C9.43427 14.1645 9.52461 14.1727 9.6115 14.1545C9.69839 14.1363 9.77789 14.0927 9.83987 14.0291L18.5028 9.02749V15.1068H18.5062C18.5057 15.117 18.5031 15.1263 18.5031 15.1365C18.5031 15.3111 18.5725 15.4786 18.6959 15.6022C18.8193 15.7259 18.9867 15.7955 19.1614 15.7958H20.4229V15.7896C20.5095 15.7896 20.5953 15.7725 20.6753 15.7394C20.7554 15.7062 20.8281 15.6576 20.8893 15.5964C20.9506 15.5351 20.9992 15.4624 21.0323 15.3824C21.0655 15.3023 21.0825 15.2166 21.0825 15.13C21.0823 15.118 21.0794 15.1071 21.0789 15.0956Z" fill="black"/>
</svg>
