<svg width="22" height="16" viewBox="0 0 22 16" fill="none" xmlns="http://www.w3.org/2000/svg">
<path d="M0.921112 1.10905L0.921112 15.3363L0.920853 15.3376L0.921112 15.3389V15.4H0.927353C0.94243 15.5629 1.01775 15.7144 1.13858 15.8248C1.25941 15.9352 1.41706 15.9966 1.58073 15.9969C1.58853 15.9969 1.59581 15.9948 1.60335 15.9946H2.79129C2.80975 15.9961 2.82769 16 2.84667 16C3.02159 16 3.18933 15.9304 3.31302 15.8068C3.43671 15.6831 3.50622 15.5153 3.50629 15.3404C3.50629 15.31 3.50135 15.2806 3.49719 15.2512V9.23457L12.1659 14.2396C12.2277 14.3007 12.306 14.3424 12.3912 14.3596C12.4764 14.3767 12.5648 14.3686 12.6454 14.3363C12.7261 14.3039 12.7955 14.2486 12.8452 14.1773C12.8949 14.106 12.9226 14.0217 12.9251 13.9349H12.9266V9.97011L20.3215 14.2398C20.3833 14.3009 20.4617 14.3426 20.5469 14.3598C20.6321 14.377 20.7204 14.3689 20.8011 14.3365C20.8818 14.3042 20.9512 14.2489 21.0009 14.1776C21.0506 14.1063 21.0783 14.022 21.0807 13.9351H21.082V2.48705C21.0819 2.39828 21.0553 2.31156 21.0057 2.23796C20.9561 2.16436 20.8856 2.10721 20.8034 2.07382C20.7211 2.04042 20.6308 2.03229 20.5439 2.05046C20.457 2.06863 20.3775 2.11227 20.3156 2.17583L12.9266 6.44191V2.48679C12.9265 2.39802 12.8999 2.3113 12.8503 2.2377C12.8007 2.1641 12.7302 2.10695 12.648 2.07355C12.5657 2.04016 12.4754 2.03203 12.3885 2.0502C12.3016 2.06837 12.2221 2.11201 12.1601 2.17557L3.49719 7.17719L3.49719 1.09787H3.49381C3.49433 1.08773 3.49693 1.07837 3.49693 1.06823C3.49686 0.893558 3.42752 0.726044 3.3041 0.602434C3.18069 0.478825 3.01328 0.409213 2.83861 0.408869H1.57709V0.415109C1.49047 0.415109 1.4047 0.43217 1.32467 0.465319C1.24464 0.498468 1.17192 0.547056 1.11067 0.608308C1.04942 0.669559 1.00083 0.742274 0.967682 0.822303C0.934532 0.902332 0.917473 0.988107 0.917473 1.07473C0.917732 1.08669 0.920591 1.09761 0.921112 1.10905Z" fill="black"/>
</svg>
