<svg width="20" height="20" viewBox="0 0 20 20" fill="none" xmlns="http://www.w3.org/2000/svg">
<path d="M18.4076 4.8666L16.6836 3.1422C16.623 3.08174 16.5409 3.04779 16.4554 3.04779C16.3698 3.04779 16.2877 3.08174 16.2272 3.1422L9.99735 9.372L8.78335 8.1584C8.72282 8.0979 8.64074 8.06391 8.55515 8.06391C8.46957 8.06391 8.38749 8.0979 8.32695 8.1584L6.60255 9.8828C6.57252 9.91273 6.5487 9.9483 6.53244 9.98746C6.51618 10.0266 6.50781 10.0686 6.50781 10.111C6.50781 10.1534 6.51618 10.1954 6.53244 10.2345C6.5487 10.2737 6.57252 10.3093 6.60255 10.3392L9.75895 13.4948C9.81935 13.5552 9.90135 13.5894 9.98715 13.5894C9.99095 13.5894 9.99455 13.5874 9.99835 13.5874C10.0016 13.5874 10.005 13.5892 10.0084 13.5892C10.0507 13.5892 10.0927 13.5809 10.1319 13.5647C10.171 13.5484 10.2066 13.5246 10.2366 13.4946L18.4076 5.3232C18.5336 5.1968 18.5336 4.9926 18.4076 4.8666Z" fill="white"/>
<path d="M14.4044 10.725V14.9568H5.59558V6.14797H11.8076L13.8034 4.15237H4.63858V4.15377C4.63398 4.15377 4.62978 4.15237 4.62498 4.15237C4.35771 4.15256 4.10112 4.25728 3.91004 4.44414C3.71896 4.631 3.60854 4.88518 3.60238 5.15237H3.59998V15.9524H3.60258C3.60887 16.2149 3.71598 16.465 3.90168 16.6507C4.08738 16.8364 4.33743 16.9435 4.59998 16.9498V16.9524H15.4V16.9498C15.6625 16.9435 15.9126 16.8364 16.0983 16.6507C16.284 16.465 16.3911 16.2149 16.3974 15.9524H16.4V8.72937L14.4044 10.725Z" fill="white"/>
</svg>
