<svg width="30" height="30" xmlns="http://www.w3.org/2000/svg">
 <g>
  <title>background</title>
  <rect x="-1" y="-1" width="32" height="32" id="canvas_background" fill="none"/>
 </g>

 <g>
  <title>Layer 1</title>
  <path stroke="null" d="m15.02964,25.910344c-6.156545,0 -11.126286,-4.966148 -11.126286,-11.118242s4.969741,-11.118242 11.126286,-11.118242c3.06591,0 5.835119,1.284775 7.837851,3.286058l-5.365342,5.361463l12.36254,0l0,-12.353602l-4.351614,4.348468c-2.695034,-2.668378 -6.379071,-4.348468 -10.483434,-4.348468c-8.184002,0 -14.810323,6.646238 -14.810323,14.824323s6.626322,14.824323 14.810323,14.824323c7.343349,0 13.425719,-5.336756 14.587798,-12.353602l-3.758212,0c-1.137354,4.941441 -5.538418,8.647521 -10.829585,8.647521z" id="svg_1" fill="#ffffff"/>
 </g>
</svg>